<svg id="Layer_1" data-name="Layer 1" xmlns="http://www.w3.org/2000/svg" viewBox="0 0 960 960"><defs><style>.cls-1{fill:#dee5e9;}.cls-2{fill:#dda63a;}.cls-3{fill:#bf8b2e;}.cls-4{fill:#d5f0cb;}.cls-5{fill:#f4ecce;}.cls-6{fill:#a21942;}.cls-7{fill:#1a4d4f;}.cls-8{fill:#fcc30b;}.cls-9{fill:#00689d;}.cls-10{fill:#56c02b;}.cls-11{fill:#f7cfcd;}.cls-12{fill:#f4c1bd;}.cls-13{fill:#c5192d;}.cls-14,.cls-33{fill:#fff;}.cls-15{fill:#f1f1f1;}.cls-16,.cls-23,.cls-34{fill:none;}.cls-16{stroke:#21565b;stroke-linejoin:round;stroke-width:3px;}.cls-16,.cls-23{stroke-linecap:round;}.cls-17{fill:#26bde2;}.cls-18{fill:#50cae7;}.cls-19{fill:#cce1ec;}.cls-20{fill:#b9c8c9;}.cls-21{fill:#e5243b;}.cls-22{fill:#19486a;}.cls-23,.cls-34{stroke:#a21942;stroke-miterlimit:10;}.cls-23{stroke-width:5px;}.cls-24{fill:#3f7e44;}.cls-25{fill:#d8b87f;}.cls-26{fill:#e2caa0;}.cls-27{fill:#4c9f38;}.cls-28{fill:#ff3a21;}.cls-29{fill:#fd9d24;}.cls-30{fill:#0a97d9;}.cls-31{fill:#fd6925;}.cls-32{fill:#dd1367;}.cls-33{opacity:0.5;}.cls-34{stroke-width:11px;}</style></defs><title>Habitat_ODS-01</title><path class="cls-1" d="M382.14,197.15l-4.09-1.65a71.59,71.59,0,0,0-53.32.5h0a50.15,50.15,0,0,0-20.06,14.85L240.74,293H484.23L400,208.64A53.32,53.32,0,0,0,382.14,197.15Z"/><path class="cls-2" d="M624.33,276.34v1.56a.62.62,0,0,0,.62.62h16.56a.64.64,0,0,0,.62-.68v-1.63c9.31-3.06,16.31-10.62,17.87-19.87v-.12a.69.69,0,0,0-.69-.69H606.46a.69.69,0,0,0-.69.69l.06.31c1.81,9.25,9,16.87,18.5,19.81m17.93-43.42c-.19.31-5.31,7.68.12,13.62,2.5,2.74,2.25,5.12,1.56,6.74h3.5c.69-2.37.44-5.43-2.43-8.49-4-4.38.06-10.31.12-10.38a1.25,1.25,0,0,0-.56-1.93,1.8,1.8,0,0,0-2.31.44m-8.81,20.36H637c.68-2.37.43-5.43-2.44-8.49-4-4.38.06-10.31.12-10.38a1.25,1.25,0,0,0-.56-1.93,1.88,1.88,0,0,0-2.31.5c-.25.31-5.31,7.68.13,13.62,2.49,2.68,2.24,5.06,1.56,6.68M621.2,232.92c-.25.31-5.31,7.68.13,13.62,2.5,2.74,2.25,5.12,1.56,6.74h3.5c.68-2.37.43-5.43-2.44-8.49-4-4.38.06-10.31.13-10.38a1.25,1.25,0,0,0-.57-1.93,1.81,1.81,0,0,0-2.31.44"/><path class="cls-3" d="M232.68,573.44c-6-4.69-13-5.15-15.81-5.15a15,15,0,0,0-3.79.37l-.36.09c-3.79.9-10,2.34-17.34,11.47l-.18.27a1.28,1.28,0,0,0-.18.54.67.67,0,0,0,.09.45l.18.27c1.17,2,2.17,3.79,3,5.24a.93.93,0,0,0,1.53.18c.09-.09.09-.18.19-.18,6.32-8.76,11.28-9.93,14.54-10.66l.36-.09a10.62,10.62,0,0,1,2-.18,18.65,18.65,0,0,1,10.93,3.52c3.71,2.89,5.51,7.5,5.51,13.73,0,10.48-5.06,14.54-9.3,16.08a14.1,14.1,0,0,1-5.15.9,17.08,17.08,0,0,1-7.77-1.8l-.27-.19c-3.61-1.62-9.12-4.87-14.27-15.26-10.56-21.22-19.42-23.21-25.29-24.56l-.27-.1a17.87,17.87,0,0,0-3.79-.36,24.86,24.86,0,0,0-15.53,5.15c-3.8,3.07-8.4,9-8.4,19.87,0,6.68,1.35,11,4.87,15.63a23.35,23.35,0,0,0,18.52,8.76,26.81,26.81,0,0,0,5.33-.55,23.14,23.14,0,0,0,9.12-4.15l3.07,2.8a1,1,0,0,0,1.26-.09c.18-.18.27-.36.18-.54L188,600.18V600a.92.92,0,0,0-.9-.91l-14.36,4h-.27a.49.49,0,0,0-.45.27,1,1,0,0,0-.27.63.82.82,0,0,0,.27.63l3,2.71a13.21,13.21,0,0,1-4.61,1.9,18,18,0,0,1-3.79.36,15.4,15.4,0,0,1-12.29-5.6l-.09-.09c-2.43-3.25-3.34-6-3.34-10.93,0-6.23,1.81-10.93,5.42-13.82,4.07-3.25,9.21-3.43,10.66-3.43a10.83,10.83,0,0,1,2,.18l.36.09c4.69,1.09,11.11,2.53,20.05,20.41,4.69,9.49,10.56,15.63,18,18.88a26.46,26.46,0,0,0,11.38,2.62,21.61,21.61,0,0,0,7.95-1.45C231,614.81,241,609.3,241,593c.27-10.48-4.43-16.44-8.31-19.51Z"/><path class="cls-4" d="M55.92,332.28v74.87a102,102,0,0,0,102,102H384.75a102,102,0,0,0,102-102V332.28Z"/><rect class="cls-5" x="430.45" y="421.65" width="380.35" height="380.35" rx="90.06" ry="90.06"/><path class="cls-6" d="M629.5,746.27,609.83,765a3.28,3.28,0,0,0-1.08,2.76V800.8a1.08,1.08,0,0,0,1.08,1.08H630.1a1.08,1.08,0,0,0,1.08-1.08v-54c.12-.72-.36-1.8-1.68-.48M573,770.5l-19.67,18.71a3.28,3.28,0,0,0-1.08,2.76v8.71a1.08,1.08,0,0,0,1.08,1.08H573.6a1.08,1.08,0,0,0,1.08-1.08V771c.12-.6-.36-1.68-1.68-.48"/><path class="cls-6" d="M638.49,723.6a.72.72,0,0,0-.12-.48A.44.44,0,0,0,638,723h-.24l-15,3.36h-.24a.42.42,0,0,0-.24.12.58.58,0,0,0,0,.84l.12.12,3.48,3.48L591.83,765l-15.71-15.71a.54.54,0,0,0-.6,0l-4.32,4.32L546,778.78a.55.55,0,0,0,0,.6l4.32,4.32a.55.55,0,0,0,.6,0l25-24.83,11.39,11.39,4.32,4.32a.55.55,0,0,0,.6,0L630.82,736l3.6,3.6a.57.57,0,0,0,.83,0,.44.44,0,0,0,.12-.36l3.36-15.35-.24-.24Z"/><path class="cls-6" d="M601.43,773.86l-9.48,9.6a.54.54,0,0,1-.6,0l-8.63-8.76c-1.56-1.56-1.92-.24-1.92.36v25.86a1.08,1.08,0,0,0,1.08,1.08h20.27a1.08,1.08,0,0,0,1.08-1.08V774.34c0-.84-.48-1.92-1.8-.48"/><path class="cls-7" d="M239.11,146.88A18.77,18.77,0,0,0,228,142.8a14.64,14.64,0,0,0-10.29,4.41,1.21,1.21,0,0,0-.33.81v.66a1.21,1.21,0,0,0,.33.81,1,1,0,0,0,1,.17h.16c.16-.17.49-.17.65-.33a9.44,9.44,0,0,1,5.07-1.14,19.06,19.06,0,0,1,13.23,5.55l.16.17a1.53,1.53,0,0,0,1.15.49,1.79,1.79,0,0,0,1.14-.49l.17-.17a19.81,19.81,0,0,1,13.23-5.55,9.39,9.39,0,0,1,5.06,1.14,2.35,2.35,0,0,0,.66.49c.16,0,.49.17.81,0a1,1,0,0,0,.82-1v-.65a1.21,1.21,0,0,0-.33-.82A14.72,14.72,0,0,0,250.22,143c-5.23-.33-9.48,2.61-11.11,3.92m-7.84-51c-.33.16-.49.32-.49.65l-.17.49a1.07,1.07,0,0,0,.17,1,.89.89,0,0,0,.81.49h.17a1,1,0,0,0,.65-.16,3.21,3.21,0,0,1,.82-.17c.49,0,5.71.17,9.15,5.89v.16a1.59,1.59,0,0,0,.81.65h.33a1,1,0,0,0,.65-.16h.17a11.87,11.87,0,0,1,5.71-1.47,9.23,9.23,0,0,1,5.89,1.8l.49.49c.16,0,.32.16.49.16h.32a.6.6,0,0,0,.49-.16c.33-.17.49-.33.49-.66l.17-.32v-.33a.58.58,0,0,0-.17-.49,9.67,9.67,0,0,0-8.66-5.23,14.22,14.22,0,0,0-4.57.82c-1.14-1.64-4.08-4.9-8.66-4.9a17.64,17.64,0,0,0-5.06,1.47m-27,19.77v.65a.9.9,0,0,0,.49.82,1.81,1.81,0,0,0,.82.16h.16c.16-.16.33-.16.49-.33a9.89,9.89,0,0,1,4.9-1.14,16.19,16.19,0,0,1,10.13,3.76l.16.16a2.42,2.42,0,0,0,1,.33h.17a1.2,1.2,0,0,0,1-.49l.16-.17A15.18,15.18,0,0,1,235,114.2a6,6,0,0,1,3.27.66.86.86,0,0,0,.65.33h.82a1,1,0,0,0,.66-1.15v-.49c0-.33-.17-.49-.33-.82a12.73,12.73,0,0,0-8.17-3.26,15.1,15.1,0,0,0-9.48,3.92,15.07,15.07,0,0,0-8.49-2.78,12.05,12.05,0,0,0-9,4.25c-.65.16-.65.49-.65.82"/><path class="cls-8" d="M706.58,747a2,2,0,0,0,2-1.89v-10.8a2,2,0,0,0-4,0v10.8a2.13,2.13,0,0,0,2,1.89m-.21-67.54a24.75,24.75,0,1,0,24.75,24.75,24.8,24.8,0,0,0-24.75-24.75m-1.78,9.75a1.85,1.85,0,0,1,1.89-1.68,1.82,1.82,0,0,1,1.78,1.68v8.5a1.82,1.82,0,0,1-1.78,1.68,1.94,1.94,0,0,1-1.89-1.68Zm1.78,27.59a12.89,12.89,0,0,1-3.88-25.18v4.83a8.37,8.37,0,1,0,12.17,7.45,8.63,8.63,0,0,0-4.62-7.56v-4.82a12.77,12.77,0,0,1,9,12.27,12.61,12.61,0,0,1-12.69,13m-28.31-12.9a2,2,0,0,0-1.89-2H665.26a2,2,0,0,0,0,4h10.8a2,2,0,0,0,2-2m71.42,0a2,2,0,0,0-1.89-2h-10.8a2,2,0,0,0,0,4h10.8a2,2,0,0,0,1.89-2m-43.11-28.32a2,2,0,0,0,2-1.89v-10.8a2,2,0,0,0-4,0v10.7a2.14,2.14,0,0,0,2,2m-24.64,14.26a2.2,2.2,0,0,0-.63-2.73l-9.44-5.34a2,2,0,0,0-2.62.83,2.18,2.18,0,0,0,.63,2.73l9.43,5.35a2.11,2.11,0,0,0,2.63-.84m62.08,35.45a2.18,2.18,0,0,0-.63-2.73l-9.43-5.35a2,2,0,0,0-2.63.84,2.2,2.2,0,0,0,.63,2.73l9.44,5.35a2,2,0,0,0,2.62-.84m-23.28-46a2.24,2.24,0,0,0,2.73-.63l5.35-9.44a2,2,0,0,0-.84-2.62,2.18,2.18,0,0,0-2.73.63l-5.35,9.44a2.07,2.07,0,0,0,.84,2.62M685,741.34a2.22,2.22,0,0,0,2.72-.63l5.35-9.44a2,2,0,0,0-.84-2.62,2.17,2.17,0,0,0-2.72.63l-5.35,9.43a2.14,2.14,0,0,0,.84,2.63m7.23-62a2.09,2.09,0,0,0,.84-2.62l-5.35-9.44a2,2,0,0,0-2.72-.63,2.2,2.2,0,0,0-.84,2.73l5.35,9.44a2.32,2.32,0,0,0,2.72.52m35.66,61.88a2.1,2.1,0,0,0,.84-2.62l-5.35-9.44a2,2,0,0,0-2.72-.63,2.2,2.2,0,0,0-.84,2.73l5.35,9.44a2,2,0,0,0,2.72.52M731,689.74a2.11,2.11,0,0,0,2.62.84l9.44-5.35a2,2,0,0,0,.63-2.73,2.21,2.21,0,0,0-2.73-.84L731.54,687a2.33,2.33,0,0,0-.52,2.73M669.14,725.4a2.1,2.1,0,0,0,2.62.83l9.44-5.34a2,2,0,0,0,.63-2.73,2.2,2.2,0,0,0-2.73-.84l-9.43,5.35a2,2,0,0,0-.53,2.73"/><path class="cls-9" d="M543.55,293.43v14.1H32.68c-.85,0-1.68-.51-1.68-1V294.44c0-.5.83-1,1.68-1Z"/><path class="cls-10" d="M544.58,318.37v14.1H33.42c-.69,0-1.39-.51-1.39-1V319.39c0-.51.7-1,1.39-1Z"/><path class="cls-6" d="M726.37,387h0c0-4.46,3.3-8.08,7.38-8.08h66.87c4.08,0,7.38,3.62,7.38,8.08v80.76c0,4.46-3.3,8.08-7.38,8.08H699.88c-4.08,0-7.38-3.62-7.38-8.08V403.16c0-4.46,3.3-8.07,7.38-8.07H719C723.06,395.09,726.37,391.47,726.37,387Z"/><path class="cls-11" d="M743.94,423.6h0a8.56,8.56,0,0,0,8.56,8.56h31.1a8.57,8.57,0,0,1,8.57,8.57v56.78a8.57,8.57,0,0,1-8.57,8.57H717.81a8.57,8.57,0,0,1-8.57-8.57V423.6a8.57,8.57,0,0,1,8.57-8.56h17.56A8.57,8.57,0,0,1,743.94,423.6Z"/><rect class="cls-12" x="736.94" y="505.76" width="27.28" height="21.29"/><path class="cls-13" d="M802.82,538.61l-70.26-13.56a4.41,4.41,0,0,0-5.25,4.33V625a4.42,4.42,0,0,0,3.58,4.34l71.93,13.88a4.27,4.27,0,0,0,1.67,0l71.93-13.88A4.42,4.42,0,0,0,880,625v-95.6a4.41,4.41,0,0,0-5.25-4.33l-70.26,13.56A4.27,4.27,0,0,1,802.82,538.61Z"/><polygon class="cls-14" points="803.66 631.43 734.3 618.04 734.3 520.31 803.66 533.7 803.66 631.43"/><polygon class="cls-15" points="803.66 631.43 873.02 618.04 873.02 520.31 803.66 533.7 803.66 631.43"/><line class="cls-16" x1="743.99" y1="538.21" x2="792.47" y2="547.16"/><line class="cls-16" x1="743.99" y1="547.16" x2="792.47" y2="556.11"/><line class="cls-16" x1="743.99" y1="556.11" x2="792.47" y2="565.06"/><line class="cls-16" x1="743.99" y1="565.06" x2="792.47" y2="574"/><line class="cls-16" x1="743.99" y1="574" x2="792.47" y2="582.95"/><line class="cls-16" x1="743.99" y1="582.95" x2="792.47" y2="591.9"/><line class="cls-16" x1="743.99" y1="591.9" x2="792.47" y2="600.85"/><line class="cls-16" x1="743.99" y1="600.85" x2="792.47" y2="609.8"/><line class="cls-16" x1="862.58" y1="538.21" x2="814.1" y2="547.16"/><line class="cls-16" x1="862.58" y1="547.16" x2="814.1" y2="556.11"/><line class="cls-16" x1="862.58" y1="556.11" x2="814.1" y2="565.06"/><line class="cls-16" x1="862.58" y1="565.06" x2="814.1" y2="574"/><line class="cls-16" x1="862.58" y1="574" x2="814.1" y2="582.95"/><line class="cls-16" x1="862.58" y1="582.95" x2="814.1" y2="591.9"/><line class="cls-16" x1="862.58" y1="591.9" x2="814.1" y2="600.85"/><line class="cls-16" x1="862.58" y1="600.85" x2="814.1" y2="609.8"/><path class="cls-17" d="M838,773.07a44.92,44.92,0,0,1-55.15,0c-17.34-17.33-11-38.61-5.13-49.64,3.55-7.09,30.34-46.88,32.31-50v0c2.36,3.55,28.76,43.34,32.31,50,6.69,11,12.6,32.31-4.34,49.64Z"/><path class="cls-18" d="M810.39,782.53a37.58,37.58,0,0,1-27.57-9.46c-17.34-17.33-11-38.61-5.13-49.64,3.55-7.09,30.34-46.88,32.31-50v0C812.36,676.94,810.39,782.53,810.39,782.53Z"/><path class="cls-19" d="M195.68,185l-3.4-1.84a45.41,45.41,0,0,0-44.32.55h0a45.44,45.44,0,0,0-16.68,16.67L78.14,292.5H280.55l-70-94.6A45.38,45.38,0,0,0,195.68,185Z"/><path class="cls-20" d="M288.31,255.72l-21.86-23.5-22.59,23.5a1.18,1.18,0,0,0-1.1,1.1v34.75a1.18,1.18,0,0,0,1.1,1.1h44.27a1.18,1.18,0,0,0,1.1-1.1V256.82a.85.85,0,0,0-.92-1.1Z"/><path class="cls-21" d="M352.29,145.54H310.93a1.14,1.14,0,0,0-1.06,1.06V291.9a1.14,1.14,0,0,0,1.06,1.06h41.54a1.14,1.14,0,0,0,1.06-1.06V146.6c-.18-.71-.53-1.06-1.24-1.06"/><rect class="cls-14" x="316.19" y="160.65" width="6.99" height="7.69" rx="0.35" ry="0.35"/><rect class="cls-14" x="328.43" y="160.65" width="6.99" height="7.69" rx="0.35" ry="0.35"/><rect class="cls-14" x="340.4" y="160.65" width="6.99" height="7.69" rx="0.35" ry="0.35"/><rect class="cls-14" x="316.19" y="176.55" width="6.99" height="7.69" rx="0.35" ry="0.35"/><rect class="cls-14" x="328.43" y="176.55" width="6.99" height="7.69" rx="0.35" ry="0.35"/><rect class="cls-14" x="340.4" y="176.55" width="6.99" height="7.69" rx="0.35" ry="0.35"/><rect class="cls-14" x="316.19" y="192.45" width="6.99" height="7.69" rx="0.35" ry="0.35"/><rect class="cls-14" x="328.43" y="192.45" width="6.99" height="7.69" rx="0.35" ry="0.35"/><rect class="cls-14" x="340.4" y="192.45" width="6.99" height="7.69" rx="0.35" ry="0.35"/><rect class="cls-14" x="316.19" y="208.35" width="6.99" height="7.69" rx="0.35" ry="0.35"/><rect class="cls-14" x="328.43" y="208.35" width="6.99" height="7.69" rx="0.35" ry="0.35"/><rect class="cls-14" x="340.4" y="208.35" width="6.99" height="7.69" rx="0.35" ry="0.35"/><rect class="cls-14" x="316.19" y="224.25" width="6.99" height="7.69" rx="0.35" ry="0.35"/><rect class="cls-14" x="328.43" y="224.25" width="6.99" height="7.69" rx="0.35" ry="0.35"/><rect class="cls-14" x="340.4" y="224.25" width="6.99" height="7.69" rx="0.35" ry="0.35"/><rect class="cls-14" x="316.19" y="240.15" width="6.99" height="7.69" rx="0.35" ry="0.35"/><rect class="cls-14" x="328.43" y="240.15" width="6.99" height="7.69" rx="0.35" ry="0.35"/><rect class="cls-14" x="340.4" y="240.15" width="6.99" height="7.69" rx="0.35" ry="0.35"/><rect class="cls-14" x="316.19" y="256.06" width="6.99" height="7.69" rx="0.35" ry="0.35"/><rect class="cls-14" x="328.43" y="256.06" width="6.99" height="7.69" rx="0.35" ry="0.35"/><rect class="cls-14" x="261.27" y="252.69" width="9.85" height="10.83" rx="0.49" ry="0.49"/><path class="cls-14" d="M272.15,291.44c0,.54-.2.81-.59.81H260.84q-.6,0-.6-.81V275.16q0-.81.6-.81h10.72c.39,0,.59.27.59.81Z"/><rect class="cls-14" x="340.4" y="256.06" width="6.99" height="7.69" rx="0.35" ry="0.35"/><path class="cls-22" d="M409.28,175.59a1,1,0,0,0-1.06-.71.63.63,0,0,0-.53.18l-.36.35L366.5,227.2l-.17.18a1.34,1.34,0,0,0-.36.88V291.9A1.14,1.14,0,0,0,367,293h41.54a1.14,1.14,0,0,0,1.06-1.06v-116C409.46,175.94,409.46,175.76,409.28,175.59Z"/><path class="cls-23" d="M296.14,262.44l-28.58-30-.24-.24a1.21,1.21,0,0,0-1.91,0l-.24.24-.23.24-28.11,29.54"/><rect class="cls-14" x="396.21" y="203.05" width="6.99" height="7.69" rx="0.35" ry="0.35"/><rect class="cls-14" x="384.24" y="216.3" width="6.99" height="7.69" rx="0.35" ry="0.35"/><rect class="cls-14" x="396.21" y="216.3" width="6.99" height="7.69" rx="0.35" ry="0.35"/><rect class="cls-14" x="372.01" y="229.55" width="6.99" height="7.69" rx="0.35" ry="0.35"/><rect class="cls-14" x="384.24" y="229.55" width="6.99" height="7.69" rx="0.35" ry="0.35"/><rect class="cls-14" x="396.21" y="229.55" width="6.99" height="7.69" rx="0.35" ry="0.35"/><rect class="cls-14" x="372.01" y="242.81" width="6.99" height="7.69" rx="0.35" ry="0.35"/><rect class="cls-14" x="384.24" y="242.81" width="6.99" height="7.69" rx="0.35" ry="0.35"/><rect class="cls-14" x="396.21" y="242.81" width="6.99" height="7.69" rx="0.35" ry="0.35"/><rect class="cls-14" x="372.01" y="256.06" width="6.99" height="7.69" rx="0.35" ry="0.35"/><rect class="cls-14" x="384.24" y="256.06" width="6.99" height="7.69" rx="0.35" ry="0.35"/><rect class="cls-14" x="396.21" y="256.06" width="6.99" height="7.69" rx="0.35" ry="0.35"/><path class="cls-24" d="M154.45,227.78V224.5a5.09,5.09,0,0,0-5.09-5.09H131.54a5.09,5.09,0,0,0-5.09,5.09V238a5.09,5.09,0,0,1-5.09,5.09h0a5.09,5.09,0,0,0-5.09,5.09v20.73a5.09,5.09,0,0,0,5.09,5.09h38.18a5.09,5.09,0,0,0,5.09-5.09V238a5.09,5.09,0,0,0-5.09-5.09h0A5.09,5.09,0,0,1,154.45,227.78Z"/><rect class="cls-3" x="135.75" y="267.41" width="9.4" height="25.09"/><path class="cls-10" d="M96.27,239.78V226.69a5.09,5.09,0,0,0-5.09-5.09H73.36a5.09,5.09,0,0,0-5.09,5.09v6.91a5.09,5.09,0,0,1-5.09,5.09h0a5.09,5.09,0,0,0-5.09,5.09v25.09A5.09,5.09,0,0,0,63.18,274h38.18a5.09,5.09,0,0,0,5.09-5.09V250a5.09,5.09,0,0,0-5.09-5.09h0A5.09,5.09,0,0,1,96.27,239.78Z"/><rect class="cls-3" x="77.42" y="267.41" width="9.4" height="25.09"/><path class="cls-22" d="M258.56,465V409.15a7.17,7.17,0,0,0-7.26-7.09H232.93a7.18,7.18,0,0,1-7.25-7.09v-6.88a7.16,7.16,0,0,0-7.25-7.09H137.22a7.17,7.17,0,0,0-7.26,7.09V465a7.16,7.16,0,0,1-7.25,7.09h-1a7.18,7.18,0,0,0-7.26,7.09v49.62a7.18,7.18,0,0,0,7.26,7.09H265.81a7.18,7.18,0,0,0,7.25-7.09V479.14a7.18,7.18,0,0,0-7.25-7.09h0A7.16,7.16,0,0,1,258.56,465Z"/><rect class="cls-25" x="177.17" y="497.45" width="29.63" height="38.4"/><path class="cls-26" d="M209.9,427.81v3.36a9.19,9.19,0,0,1-9.2,9.19H158.58a9.2,9.2,0,0,0-9.19,9.2v55.35a9.19,9.19,0,0,0,9.19,9.19h68.59a9.19,9.19,0,0,0,9.2-9.19v-77.1a9.2,9.2,0,0,0-9.2-9.19h-8.08A9.19,9.19,0,0,0,209.9,427.81Z"/><path class="cls-27" d="M766,325.41c0-3.63-2.33-6.6-5.88-6.6-1.77,0-3.94,1.93-5.07,3.14-1.13-1.21-3.14-3.14-4.91-3.14-3.54,0-6,3-6,6.6a6.82,6.82,0,0,0,1.85,4.67l9.1,9.09,9.1-9.09A6.78,6.78,0,0,0,766,325.41Z"/><path class="cls-27" d="M727.36,354a1.49,1.49,0,0,1-1.45-1.21l-4.59-26.89-7,13a1.48,1.48,0,0,1-1.61.73,1.46,1.46,0,0,1-1.21-1.29l-3-20.77-5.39,12.15a1.5,1.5,0,0,1-1.37.89H620.53a1.53,1.53,0,1,1,0-3.06h80.26l7.17-16a1.42,1.42,0,0,1,1.53-.89,1.54,1.54,0,0,1,1.28,1.29l3.06,21.42,6.93-12.8a1.35,1.35,0,0,1,1.53-.73,1.37,1.37,0,0,1,1.2,1.21l4.27,24.87,15.54-51.68a1.47,1.47,0,0,1,2.73-.24l8.22,17a1.51,1.51,0,0,1-2.74,1.28L745,298.68l-16.26,54.1a1.38,1.38,0,0,1-1.37,1.21Z"/><circle class="cls-14" cx="482.16" cy="483.31" r="234.79"/><path class="cls-10" d="M374.58,420.18a125.85,125.85,0,0,1,19.84-25.51l-65-71.31A222.55,222.55,0,0,0,288.1,377.1l86.48,43.08"/><path class="cls-2" d="M534,369.81a124.55,124.55,0,0,1,27.27,17.08l65.21-71.2a222.1,222.1,0,0,0-57.79-36.06L534,369.81"/><path class="cls-13" d="M683.36,391.25l-86.44,43.09a124,124,0,0,1,8.66,30.54l96.15-9.08a219.51,219.51,0,0,0-18.37-64.55"/><path class="cls-27" d="M590.72,421.84l86.43-43.08a222.36,222.36,0,0,0-40.39-53.62l-65.22,71.19a125.34,125.34,0,0,1,19.18,25.51"/><path class="cls-24" d="M357.41,483.27c0-1.95.06-3.89.15-5.82l-96.18-8.61c-.3,4.77-.48,9.58-.48,14.43a221.42,221.42,0,0,0,6.55,53.49l92.88-26.64a125.08,125.08,0,0,1-2.92-26.85"/><path class="cls-8" d="M578.62,562.31a126.52,126.52,0,0,1-23.46,22.07l50.78,82.21a223.15,223.15,0,0,0,49.73-46.17l-77-58.11"/><path class="cls-28" d="M606.92,483.27a123.44,123.44,0,0,1-2.86,26.53l92.87,26.69a220.31,220.31,0,0,0,6.5-53.22q0-6.84-.43-13.58l-96.17,9.08q.09,2.25.09,4.5"/><path class="cls-29" d="M387.27,564.15,310.4,622.57a223,223,0,0,0,50.2,45.48l50.77-82.13a125.33,125.33,0,0,1-24.1-21.77"/><path class="cls-30" d="M359,463.57a123,123,0,0,1,9.21-31l-86.4-43a219.43,219.43,0,0,0-19.07,65.4L359,463.57"/><path class="cls-6" d="M594.13,674l-50.71-82.11a124.2,124.2,0,0,1-29.59,12l17.9,95a219.87,219.87,0,0,0,62.4-24.9"/><path class="cls-17" d="M600.36,523.25a124.59,124.59,0,0,1-13.5,27.8L664,609.21a220,220,0,0,0,29.19-59.29l-92.8-26.67"/><path class="cls-31" d="M500.16,606.72a123.73,123.73,0,0,1-32.52.45l-17.88,95a221.75,221.75,0,0,0,68.27-.54l-17.87-94.89"/><path class="cls-21" d="M490.14,358.76a123.52,123.52,0,0,1,30.87,6l34.69-90.15a219.83,219.83,0,0,0-65.56-12.41v96.6"/><path class="cls-32" d="M453.89,604.8a124,124,0,0,1-30.62-11.59l-50.8,82.17A219.89,219.89,0,0,0,436,699.67l17.86-94.87"/><path class="cls-22" d="M444.67,364.27a123.83,123.83,0,0,1,31.52-5.6V262.08a220.13,220.13,0,0,0-66.44,12.11l34.92,90.08"/><path class="cls-3" d="M378.81,553.05a123.87,123.87,0,0,1-14.72-29.5l-92.82,26.64a220.39,220.39,0,0,0,30.66,61.29l76.88-58.43"/><path class="cls-9" d="M404.87,385.41a125,125,0,0,1,26.75-16.19l-34.9-90a221.13,221.13,0,0,0-56.93,34.87l65.08,71.36"/><circle class="cls-33" cx="482.16" cy="483.31" r="149.34"/><polygon class="cls-34" points="515.2 471.04 482.16 437.27 449.12 471.04 449.12 522.44 515.2 522.44 515.2 471.04"/><path class="cls-30" d="M113.19,412.43C111,409.53,97,391.6,77.34,391.6c-17.07,0-35.42,15.46-35.42,15.46S35.05,393,21,391.6h-.33a.57.57,0,0,0-.53.54,1.39,1.39,0,0,0,.21.54c1.83,3,6.44,11.59,6.44,20.07s-4.61,17.17-6.44,20.18l-.11.21c0,.11-.1.22-.1.32a.5.5,0,0,0,.53.54h.22c14.06-1.29,21-15.46,21-15.46S60.16,434,77.34,434c19.64,0,33.7-17.93,35.85-20.82.11-.11.11-.11.11-.22v-.43l-.11-.1m-25,2.68a5.78,5.78,0,0,1-5.8-5.8,5.69,5.69,0,0,1,5.8-5.69,5.75,5.75,0,1,1,0,11.49M20.45,357.9h-.11a.51.51,0,0,0-.54.53v4a.57.57,0,0,0,.22.43c9.55,8.26,18.46.53,20.61-1.51,0-.1.11-.1.11-.1a.37.37,0,0,1,.32-.11c.1,0,.32.11.43.11,10.73,10.19,22,1.93,24.36,0l.22-.22h.43l.21.22c2.36,1.93,13.63,10.19,24.37,0,.1-.11.21-.11.43-.11a.39.39,0,0,1,.32.11.1.1,0,0,1,.11.1c2,2,11,9.77,20.6,1.51a.57.57,0,0,0,.22-.43v-4a.51.51,0,0,0-.54-.53h-.11c-.1,0-.21.11-.32.11-2.9,1.5-12,4.93-20.18-2.8L91.4,355H91c-.11,0-.22.11-.32.21-2.47,1.83-13.74,9.45-23.72.11l-.11-.11a.59.59,0,0,0-.43-.21.86.86,0,0,0-.43.21l-.11.11c-10,9.34-21.25,1.72-23.72-.11-.11-.1-.11-.21-.32-.21h-.43l-.22.21c-8.26,7.84-17.28,4.3-20.17,2.8a2.12,2.12,0,0,1-.54-.11m20.07,17.6a.11.11,0,0,1,.11-.11.41.41,0,0,1,.32-.1c.11,0,.32.1.43.1,10.73,10.2,22,1.94,24.36,0l.22-.21h.43l.21.21c2.37,1.94,13.64,10.2,24.37,0,.11-.1.21-.1.43-.1a.41.41,0,0,1,.32.1.11.11,0,0,1,.11.11c2,2,11,9.77,20.61,1.5a.56.56,0,0,0,.21-.43v-4a.5.5,0,0,0-.54-.53H112c-.11,0-.22.1-.32.1-2.9,1.51-12,4.94-20.18-2.79l-.22-.21c-.11,0-.11-.11-.21-.11h-.22c-.11,0-.21.11-.32.22-2.47,1.82-13.74,9.44-23.72.1l-.11-.1c-.11-.11-.21-.11-.43-.11s-.32.11-.43.11l-.11.1c-10,9.34-21.25,1.72-23.72-.1-.1-.11-.1-.22-.32-.22h-.21c-.11,0-.11,0-.22.11l-.21.21a17.23,17.23,0,0,1-20.18,2.79c-.11,0-.22-.1-.32-.1h-.11a.51.51,0,0,0-.54.53v4a.53.53,0,0,0,.22.43c9.34,8.27,18.35.54,20.39-1.5"/><path class="cls-31" d="M526.9,785.67l-21-12.13V749.19a1.19,1.19,0,0,0-.77-1.21l-21.82-12.56a1.57,1.57,0,0,0-1.43,0L460,748a1.49,1.49,0,0,0-.77,1.21v24.35l-21.05,12.13a1.49,1.49,0,0,0-.77,1.21V812a1.19,1.19,0,0,0,.77,1.22L460,825.78a1.59,1.59,0,0,0,.77.22,2,2,0,0,0,.77-.22l21.05-12.12,21,12.12a1.46,1.46,0,0,0,1.54,0L527,813.22a1.49,1.49,0,0,0,.77-1.22V786.88a2.07,2.07,0,0,0-.88-1.21Zm-45.84,23.91-17.52-10.14,17.52-10.14v20.28Zm20.38-35.26-17.52,10.13V764.29l17.52,10Zm-20.38,10-17.52-10.13,17.52-10.14v20.27Zm4.41,2.54L504.42,776l18.95,10.91-18.95,10.91Zm17.41-15.1-17.53-10.14,17.53-10.14Zm-23.26-10L462.1,771.89V751.72l17.52,10Zm-20.27,60.39-19-10.91V789.41l19,10.91Zm2.86,0V802l17.52,10.13-17.52,10Zm62.49-10.91-19,10.91V800.32l19-10.91Z"/></svg>